mtllib material.mtl
usemtl material_0
v -0.04700000 0.00000000 -0.38080000
v -0.04333500 -0.01487100 -0.38080000
v -0.03317800 -0.02633500 -0.38080000
v -0.01885700 -0.03176700 -0.38080000
v -0.00365300 -0.02992100 -0.38080000
v 0.00895200 -0.02122000 -0.38080000
v 0.01607000 -0.00765800 -0.38080000
v 0.01607000 0.00765800 -0.38080000
v 0.01607000 0.00765800 -0.38080000
v 0.00895200 0.02122000 -0.38080000
v -0.00365300 0.02992100 -0.38080000
v -0.01885700 0.03176700 -0.38080000
v -0.03317800 0.02633500 -0.38080000
v -0.04333500 0.01487100 -0.38080000
v -0.04700000 0.00000000 -0.37880000
v -0.04700000 0.00000000 -0.37880000
v -0.04333500 0.01487100 -0.37880000
v -0.04333500 0.01487100 -0.37880000
v -0.03317800 0.02633500 -0.37880000
v -0.03317800 0.02633500 -0.37880000
v -0.01885700 0.03176700 -0.37880000
v -0.01885700 0.03176700 -0.37880000
v -0.00365300 0.02992100 -0.37880000
v -0.00365300 0.02992100 -0.37880000
v 0.00895200 0.02122000 -0.37880000
v 0.00895200 0.02122000 -0.37880000
v 0.01607000 0.00765800 -0.37880000
v 0.01607000 0.00765800 -0.37880000
v 0.01607000 0.00765800 -0.37880000
v 0.01607000 -0.00765800 -0.37880000
v 0.01607000 -0.00765800 -0.37880000
v 0.01607000 -0.00765800 -0.37880000
v 0.00895200 -0.02122000 -0.37880000
v 0.00895200 -0.02122000 -0.37880000
v -0.00365300 -0.02992100 -0.37880000
v -0.00365300 -0.02992100 -0.37880000
v -0.01885700 -0.03176700 -0.37880000
v -0.01885700 -0.03176700 -0.37880000
v -0.03317800 -0.02633500 -0.37880000
v -0.03317800 -0.02633500 -0.37880000
v -0.04333500 -0.01487100 -0.37880000
v -0.04333500 -0.01487100 -0.37880000
v -0.04677600 0.00000000 -0.37669500
v -0.04677600 0.00000000 -0.37669500
v -0.04313600 0.01476700 -0.37669500
v -0.04313600 0.01476700 -0.37669500
v -0.03305100 0.02615100 -0.37669500
v -0.03305100 0.02615100 -0.37669500
v -0.01883000 0.03154400 -0.37669500
v -0.01883000 0.03154400 -0.37669500
v -0.00373200 0.02971100 -0.37669500
v -0.00373200 0.02971100 -0.37669500
v 0.00878500 0.02107100 -0.37669500
v 0.00878500 0.02107100 -0.37669500
v 0.01585300 0.00760400 -0.37669500
v 0.01585300 0.00760400 -0.37669500
v 0.01585300 -0.00760400 -0.37669500
v 0.01585300 -0.00760400 -0.37669500
v 0.01585300 -0.00760400 -0.37669500
v 0.01585300 -0.00760400 -0.37669500
v 0.00878500 -0.02107100 -0.37669500
v 0.00878500 -0.02107100 -0.37669500
v -0.00373200 -0.02971100 -0.37669500
v -0.00373200 -0.02971100 -0.37669500
v -0.01883000 -0.03154400 -0.37669500
v -0.01883000 -0.03154400 -0.37669500
v -0.03305100 -0.02615100 -0.37669500
v -0.03305100 -0.02615100 -0.37669500
v -0.04313600 -0.01476700 -0.37669500
v -0.04313600 -0.01476700 -0.37669500
v -0.04399900 0.00000000 -0.36380000
v -0.04399900 0.00000000 -0.36380000
v -0.04011400 0.01449900 -0.36380000
v -0.04011400 0.01449900 -0.36380000
v -0.02949900 0.02511400 -0.36380000
v -0.02949900 0.02511400 -0.36380000
v -0.01500000 0.02899900 -0.36380000
v -0.01500000 0.02899900 -0.36380000
v -0.00050100 0.02511400 -0.36380000
v -0.00050100 0.02511400 -0.36380000
v 0.01011400 0.01449900 -0.36380000
v 0.01011400 0.01449900 -0.36380000
v 0.01399900 0.00000000 -0.36380000
v 0.01399900 0.00000000 -0.36380000
v 0.01399900 0.00000000 -0.36380000
v 0.01011400 -0.01449900 -0.36380000
v 0.01011400 -0.01449900 -0.36380000
v -0.00050100 -0.02511400 -0.36380000
v -0.00050100 -0.02511400 -0.36380000
v -0.01500000 -0.02899900 -0.36380000
v -0.01500000 -0.02899900 -0.36380000
v -0.02949900 -0.02511400 -0.36380000
v -0.02949900 -0.02511400 -0.36380000
v -0.04011400 -0.01449900 -0.36380000
v -0.04011400 -0.01449900 -0.36380000
v -0.04349900 0.00000000 -0.36380000
v -0.04349900 0.00000000 -0.36380000
v -0.03968100 0.01424900 -0.36380000
v -0.03968100 0.01424900 -0.36380000
v -0.02924900 0.02468100 -0.36380000
v -0.02924900 0.02468100 -0.36380000
v -0.01500000 0.02849900 -0.36380000
v -0.01500000 0.02849900 -0.36380000
v -0.00075100 0.02468100 -0.36380000
v -0.00075100 0.02468100 -0.36380000
v 0.00968100 0.01424900 -0.36380000
v 0.00968100 0.01424900 -0.36380000
v 0.01349900 0.00000000 -0.36380000
v 0.01349900 0.00000000 -0.36380000
v 0.01349900 0.00000000 -0.36380000
v 0.00968100 -0.01424900 -0.36380000
v 0.00968100 -0.01424900 -0.36380000
v -0.00075100 -0.02468100 -0.36380000
v -0.00075100 -0.02468100 -0.36380000
v -0.01500000 -0.02849900 -0.36380000
v -0.01500000 -0.02849900 -0.36380000
v -0.02924900 -0.02468100 -0.36380000
v -0.02924900 -0.02468100 -0.36380000
v -0.03968100 -0.01424900 -0.36380000
v -0.03968100 -0.01424900 -0.36380000
v -0.04349900 0.00000000 -0.37380000
v -0.03968100 0.01424900 -0.37380000
v -0.02924900 0.02468100 -0.37380000
v -0.01500000 0.02849900 -0.37380000
v -0.00075100 0.02468100 -0.37380000
v 0.00968100 0.01424900 -0.37380000
v 0.01349900 0.00000000 -0.37380000
v 0.01349900 0.00000000 -0.37380000
v 0.00968100 -0.01424900 -0.37380000
v -0.00075100 -0.02468100 -0.37380000
v -0.01500000 -0.02849900 -0.37380000
v -0.02924900 -0.02468100 -0.37380000
v -0.03968100 -0.01424900 -0.37380000
vn -100.00000000 0.00000000 -0.00000000
vn -88.54560300 -46.47231700 0.00000000
vn -56.80647500 -82.29838700 0.00000000
vn -12.05366800 -99.27088700 0.00000000
vn 35.46048900 -93.50162400 0.00000000
vn 74.85107500 -66.31226600 0.00000000
vn 97.09418200 -23.93156600 0.00000000
vn 97.09418200 23.93156600 0.00000000
vn 97.09418200 23.93156600 0.00000000
vn 74.85107500 66.31226600 0.00000000
vn 35.46048900 93.50162400 0.00000000
vn -12.05366800 99.27088700 -0.00000000
vn -56.80647500 82.29838700 -0.00000000
vn -88.54560300 46.47231700 -0.00000000
vn -100.00000000 0.00000000 -0.00000000
vn -100.00000000 0.00000000 -0.00000000
vn -88.54560300 46.47231700 -0.00000000
vn -88.54560300 46.47231700 -0.00000000
vn -56.80647500 82.29838700 -0.00000000
vn -56.80647500 82.29838700 -0.00000000
vn -12.05366800 99.27088700 -0.00000000
vn -12.05366800 99.27088700 -0.00000000
vn 35.46048900 93.50162400 0.00000000
vn 35.46048900 93.50162400 0.00000000
vn 74.85107500 66.31226600 0.00000000
vn 74.85107500 66.31226600 0.00000000
vn 97.09418200 23.93156600 0.00000000
vn 97.09418200 23.93156600 0.00000000
vn 97.09418200 23.93156600 0.00000000
vn 97.09418200 -23.93156600 0.00000000
vn 97.09418200 -23.93156600 0.00000000
vn 97.09418200 -23.93156600 0.00000000
vn 74.85107500 -66.31226600 0.00000000
vn 74.85107500 -66.31226600 0.00000000
vn 35.46048900 -93.50162400 0.00000000
vn 35.46048900 -93.50162400 0.00000000
vn -12.05366800 -99.27088700 0.00000000
vn -12.05366800 -99.27088700 0.00000000
vn -56.80647500 -82.29838700 0.00000000
vn -56.80647500 -82.29838700 0.00000000
vn -88.54560300 -46.47231700 0.00000000
vn -88.54560300 -46.47231700 0.00000000
vn -97.75856200 0.00000000 21.05382500
vn -97.75856200 0.00000000 21.05382500
vn -86.56090800 45.43066900 21.05382500
vn -86.56090800 45.43066900 21.05382500
vn -55.53319300 80.45371900 21.05382500
vn -55.53319300 80.45371900 21.05382500
vn -11.78349300 97.04579200 21.05382500
vn -11.78349300 97.04579200 21.05382500
vn 34.66566400 91.40584300 21.05382500
vn 34.66566400 91.40584300 21.05382500
vn 73.17333400 64.82591800 21.05382500
vn 73.17333400 64.82591800 21.05382500
vn 94.91787600 23.39515500 21.05382500
vn 94.91787600 23.39515500 21.05382500
vn 94.91787600 -23.39515500 21.05382500
vn 94.91787600 -23.39515500 21.05382500
vn 94.91787600 -23.39515500 21.05382500
vn 94.91787600 -23.39515500 21.05382500
vn 73.17333400 -64.82591800 21.05382500
vn 73.17333400 -64.82591800 21.05382500
vn 34.66566400 -91.40584300 21.05382500
vn 34.66566400 -91.40584300 21.05382500
vn -11.78349300 -97.04579200 21.05382500
vn -11.78349300 -97.04579200 21.05382500
vn -55.53319300 -80.45371900 21.05382500
vn -55.53319300 -80.45371900 21.05382500
vn -86.56090800 -45.43066900 21.05382500
vn -86.56090800 -45.43066900 21.05382500
vn -97.75856200 0.00000000 21.05382500
vn 0.00000000 0.00000000 100.00000000
vn -84.66139800 48.87928100 21.05382500
vn 0.00000000 0.00000000 100.00000000
vn 0.00000000 0.00000000 100.00000000
vn -48.87928100 84.66139800 21.05382500
vn 0.00000000 0.00000000 100.00000000
vn -0.00000000 97.75856200 21.05382500
vn 48.87928100 84.66139800 21.05382500
vn 0.00000000 0.00000000 100.00000000
vn 0.00000000 0.00000000 100.00000000
vn 84.66139800 48.87928100 21.05382500
vn 97.75856200 -0.00000000 21.05382500
vn 0.00000000 0.00000000 100.00000000
vn 97.75856200 -0.00000000 21.05382500
vn 84.66139800 -48.87928100 21.05382500
vn 0.00000000 0.00000000 100.00000000
vn 0.00000000 0.00000000 100.00000000
vn 48.87928100 -84.66139800 21.05382500
vn 0.00000000 0.00000000 100.00000000
vn 0.00000000 -97.75856200 21.05382500
vn 0.00000000 0.00000000 100.00000000
vn -48.87928100 -84.66139800 21.05382500
vn -84.66139800 -48.87928100 21.05382500
vn 0.00000000 0.00000000 100.00000000
vn 100.00000000 -0.00000000 0.00000000
vn 0.00000000 0.00000000 100.00000000
vn 0.00000000 0.00000000 100.00000000
vn 86.60254000 -50.00000000 0.00000000
vn 50.00000000 -86.60254000 0.00000000
vn 0.00000000 0.00000000 100.00000000
vn 0.00000000 0.00000000 100.00000000
vn 0.00000000 -100.00000000 0.00000000
vn -50.00000000 -86.60254000 0.00000000
vn 0.00000000 0.00000000 100.00000000
vn 0.00000000 0.00000000 100.00000000
vn -86.60254000 -50.00000000 0.00000000
vn 0.00000000 0.00000000 100.00000000
vn -100.00000000 0.00000000 0.00000000
vn -100.00000000 0.00000000 0.00000000
vn 0.00000000 0.00000000 100.00000000
vn -86.60254000 50.00000000 0.00000000
vn -50.00000000 86.60254000 0.00000000
vn 0.00000000 0.00000000 100.00000000
vn -0.00000000 100.00000000 0.00000000
vn 0.00000000 0.00000000 100.00000000
vn 50.00000000 86.60254000 0.00000000
vn 0.00000000 0.00000000 100.00000000
vn 0.00000000 0.00000000 100.00000000
vn 86.60254000 50.00000000 0.00000000
vn 100.00000000 -0.00000000 0.00000000
vn 86.60254000 -50.00000000 0.00000000
vn 50.00000000 -86.60254000 0.00000000
vn 0.00000000 -100.00000000 0.00000000
vn -50.00000000 -86.60254000 0.00000000
vn -86.60254000 -50.00000000 0.00000000
vn -100.00000000 0.00000000 0.00000000
vn -100.00000000 0.00000000 0.00000000
vn -86.60254000 50.00000000 0.00000000
vn -50.00000000 86.60254000 0.00000000
vn -0.00000000 100.00000000 0.00000000
vn 50.00000000 86.60254000 0.00000000
vn 86.60254000 50.00000000 0.00000000
vt -15.94000000 0.00000000
vt -15.94000000 -1.54663000
vt -15.94000000 -3.09326000
vt -15.94000000 -4.63989100
vt -15.94000000 -6.18652100
vt -15.94000000 -7.73315100
vt -15.94000000 -9.27978100
vt -15.94000000 -10.82641200
vt -15.94000000 9.27978100
vt -15.94000000 7.73315100
vt -15.94000000 6.18652100
vt -15.94000000 4.63989100
vt -15.94000000 3.09326000
vt -15.94000000 1.54663000
vt -15.74000000 0.00000000
vt -0.00000000 0.00000000
vt -0.00000000 1.54391400
vt -15.74000000 1.54663000
vt -15.74000000 3.09326000
vt -0.00000000 3.08782900
vt -15.74000000 4.63989100
vt -0.00000000 4.63174300
vt -0.00000000 6.17565700
vt -15.74000000 6.18652100
vt -15.74000000 7.73315100
vt -0.00000000 7.71957100
vt -15.74000000 -10.82641200
vt -15.74000000 9.27978100
vt -0.00000000 9.26348600
vt -15.74000000 -9.27978100
vt 0.00000000 10.80740000
vt -0.00000000 -9.26348600
vt -15.74000000 -7.73315100
vt -0.00000000 -7.71957100
vt -15.74000000 -6.18652100
vt -0.00000000 -6.17565700
vt -15.74000000 -4.63989100
vt 0.00000000 -4.63174300
vt -15.74000000 -3.09326000
vt 0.00000000 -3.08782900
vt -15.74000000 -1.54663000
vt 0.00000000 -1.54391400
vt 0.21212600 0.00000000
vt -1.31902700 0.00000000
vt 0.21212600 1.54391400
vt -1.31902700 1.46868600
vt 0.21212600 3.08782900
vt -1.31902700 2.93737300
vt -1.31902700 4.40605900
vt 0.21212600 4.63174300
vt 0.21212600 6.17565700
vt -1.31902700 5.87474500
vt 0.21212600 7.71957100
vt -1.31902700 7.34343100
vt 0.21212600 9.26348600
vt -1.31902700 8.81211800
vt -1.31902700 -8.81211800
vt 0.21212600 -9.26348600
vt 0.21212600 10.80740000
vt -1.31902700 10.28080400
vt 0.21212600 -7.71957100
vt -1.31902700 -7.34343100
vt 0.21212600 -6.17565700
vt -1.31902700 -5.87474500
vt 0.21212600 -4.63174300
vt -1.31902700 -4.40605900
vt 0.21212600 -3.08782900
vt -1.31902700 -2.93737300
vt -1.31902700 -1.46868600
vt 0.21212600 -1.54391400
vt 0.00000000 0.00000000
vt -5.77476000 0.00000000
vt -0.00000000 1.59107700
vt -5.38625000 1.44994000
vt -4.32482000 2.51137000
vt -0.00000000 3.18215400
vt -2.87488000 2.89988000
vt -0.00000000 4.77323000
vt -0.00000000 6.36430700
vt -1.42494000 2.51137000
vt -0.36351000 1.44994000
vt -0.00000000 7.95538400
vt -0.00000000 -9.54646100
vt 0.02500000 0.00000000
vt 0.00000000 9.54646100
vt -0.00000000 -7.95538400
vt -0.36351000 -1.44994000
vt -1.42494000 -2.51137000
vt -0.00000000 -6.36430700
vt -2.87488000 -2.89988000
vt -0.00000000 -4.77323000
vt -4.32482000 -2.51137000
vt 0.00000000 -3.18215400
vt 0.00000000 -1.59107700
vt -5.38625000 -1.44994000
vt 14.24000000 0.00000000
vt -5.72476000 0.00000000
vt -5.34294800 1.42494000
vt 14.24000000 1.49219400
vt 14.24000000 2.98438700
vt -4.29982000 2.46806800
vt -2.87488000 2.84988000
vt 14.24000000 4.47658100
vt 14.24000000 5.96877500
vt -1.44994000 2.46806800
vt -0.40681200 1.42494000
vt 14.24000000 7.46096800
vt -0.02500000 0.00000000
vt 14.24000000 8.95316200
vt 14.24000000 -8.95316200
vt -0.40681200 -1.42494000
vt 14.24000000 -7.46096800
vt 14.24000000 -5.96877500
vt -1.44994000 -2.46806800
vt 14.24000000 -4.47658100
vt -2.87488000 -2.84988000
vt 14.24000000 -2.98438700
vt -4.29982000 -2.46806800
vt -5.34294800 -1.42494000
vt 14.24000000 -1.49219400
vt 15.24000000 0.00000000
vt 15.24000000 1.49219400
vt 15.24000000 2.98438700
vt 15.24000000 4.47658100
vt 15.24000000 5.96877500
vt 15.24000000 7.46096800
vt 15.24000000 8.95316200
vt 15.24000000 -8.95316200
vt 15.24000000 -7.46096800
vt 15.24000000 -5.96877500
vt 15.24000000 -4.47658100
vt 15.24000000 -2.98438700
vt 15.24000000 -1.49219400
f 2/2/2 15/15/15 1/1/1
f 1/1/1 15/15/15 18/18/18
f 1/1/1 18/18/18 14/14/14
f 14/14/14 18/18/18 19/19/19
f 14/14/14 19/19/19 13/13/13
f 13/13/13 19/19/19 21/21/21
f 13/13/13 21/21/21 12/12/12
f 12/12/12 21/21/21 24/24/24
f 12/12/12 24/24/24 11/11/11
f 11/11/11 24/24/24 25/25/25
f 11/11/11 25/25/25 10/10/10
f 10/10/10 25/25/25 28/28/28
f 10/10/10 28/28/28 9/9/9
f 8/8/8 27/27/27 30/30/30
f 8/8/8 30/30/30 7/7/7
f 7/7/7 30/30/30 33/33/33
f 7/7/7 33/33/33 6/6/6
f 6/6/6 33/33/33 35/35/35
f 6/6/6 35/35/35 5/5/5
f 5/5/5 35/35/35 37/37/37
f 5/5/5 37/37/37 4/4/4
f 4/4/4 37/37/37 39/39/39
f 4/4/4 39/39/39 3/3/3
f 3/3/3 39/39/39 41/41/41
f 3/3/3 41/41/41 2/2/2
f 2/2/2 41/41/41 15/15/15
f 45/45/45 16/16/16 43/43/43
f 43/43/43 16/16/16 42/42/42
f 43/43/43 42/42/42 70/70/70
f 70/70/70 42/42/42 40/40/40
f 70/70/70 40/40/40 67/67/67
f 67/67/67 40/40/40 38/38/38
f 67/67/67 38/38/38 65/65/65
f 65/65/65 38/38/38 36/36/36
f 65/65/65 36/36/36 63/63/63
f 63/63/63 36/36/36 34/34/34
f 63/63/63 34/34/34 61/61/61
f 61/61/61 34/34/34 32/32/32
f 61/61/61 32/32/32 58/58/58
f 59/59/59 31/31/31 29/29/29
f 59/59/59 29/29/29 55/55/55
f 55/55/55 29/29/29 26/26/26
f 55/55/55 26/26/26 53/53/53
f 53/53/53 26/26/26 23/23/23
f 53/53/53 23/23/23 51/51/51
f 51/51/51 23/23/23 22/22/22
f 51/51/51 22/22/22 50/50/50
f 50/50/50 22/22/22 20/20/20
f 50/50/50 20/20/20 47/47/47
f 47/47/47 20/20/20 17/17/17
f 47/47/47 17/17/17 45/45/45
f 45/45/45 17/17/17 16/16/16
f 46/46/46 44/44/44 71/71/71
f 71/71/71 44/44/44 69/69/69
f 71/71/71 69/69/69 94/94/94
f 94/94/94 69/69/69 68/68/68
f 94/94/94 68/68/68 93/93/93
f 93/93/93 68/68/68 66/66/66
f 93/93/93 66/66/66 91/91/91
f 91/91/91 66/66/66 64/64/64
f 91/91/91 64/64/64 89/89/89
f 89/89/89 64/64/64 62/62/62
f 89/89/89 62/62/62 86/86/86
f 86/86/86 62/62/62 57/57/57
f 86/86/86 57/57/57 83/83/83
f 85/85/85 60/60/60 56/56/56
f 85/85/85 56/56/56 82/82/82
f 82/82/82 56/56/56 54/54/54
f 82/82/82 54/54/54 79/79/79
f 79/79/79 54/54/54 52/52/52
f 79/79/79 52/52/52 78/78/78
f 78/78/78 52/52/52 49/49/49
f 78/78/78 49/49/49 76/76/76
f 76/76/76 49/49/49 48/48/48
f 76/76/76 48/48/48 73/73/73
f 73/73/73 48/48/48 46/46/46
f 73/73/73 46/46/46 71/71/71
f 95/95/95 119/119/119 72/72/72
f 72/72/72 119/119/119 97/97/97
f 72/72/72 97/97/97 98/98/98
f 119/119/119 95/95/95 118/118/118
f 118/118/118 95/95/95 92/92/92
f 118/118/118 92/92/92 116/116/116
f 116/116/116 92/92/92 90/90/90
f 116/116/116 90/90/90 88/88/88
f 116/116/116 88/88/88 114/114/114
f 114/114/114 88/88/88 87/87/87
f 114/114/114 87/87/87 111/111/111
f 111/111/111 87/87/87 108/108/108
f 108/108/108 87/87/87 84/84/84
f 108/108/108 84/84/84 106/106/106
f 106/106/106 84/84/84 81/81/81
f 106/106/106 81/81/81 105/105/105
f 105/105/105 81/81/81 80/80/80
f 105/105/105 80/80/80 102/102/102
f 102/102/102 80/80/80 77/77/77
f 102/102/102 77/77/77 75/75/75
f 102/102/102 75/75/75 101/101/101
f 101/101/101 75/75/75 74/74/74
f 101/101/101 74/74/74 98/98/98
f 98/98/98 74/74/74 72/72/72
f 122/122/122 99/99/99 121/121/121
f 121/121/121 99/99/99 96/96/96
f 121/121/121 96/96/96 133/133/133
f 133/133/133 96/96/96 120/120/120
f 133/133/133 120/120/120 132/132/132
f 132/132/132 120/120/120 117/117/117
f 132/132/132 117/117/117 131/131/131
f 131/131/131 117/117/117 115/115/115
f 131/131/131 115/115/115 130/130/130
f 130/130/130 115/115/115 113/113/113
f 130/130/130 113/113/113 129/129/129
f 129/129/129 113/113/113 112/112/112
f 129/129/129 112/112/112 128/128/128
f 128/128/128 112/112/112 110/110/110
f 127/127/127 109/109/109 126/126/126
f 126/126/126 109/109/109 107/107/107
f 126/126/126 107/107/107 125/125/125
f 125/125/125 107/107/107 104/104/104
f 125/125/125 104/104/104 124/124/124
f 124/124/124 104/104/104 103/103/103
f 124/124/124 103/103/103 123/123/123
f 123/123/123 103/103/103 100/100/100
f 123/123/123 100/100/100 122/122/122
f 122/122/122 100/100/100 99/99/99

